<mxfile host="Electron" modified="2023-12-11T01:49:04.233Z" agent="Mozilla/5.0 (Windows NT 10.0; Win64; x64) AppleWebKit/537.36 (KHTML, like Gecko) draw.io/22.1.2 Chrome/114.0.5735.289 Electron/25.9.4 Safari/537.36" etag="0dH7hIDY_gIYCQHs_7Q2" version="22.1.2" type="device">
  <diagram name="Page-1" id="5UiYwpYJZTsSI2AqwJZY">
    <mxGraphModel dx="2899" dy="1194" grid="1" gridSize="10" guides="1" tooltips="1" connect="1" arrows="1" fold="1" page="1" pageScale="1" pageWidth="850" pageHeight="1100" math="0" shadow="0">
      <root>
        <mxCell id="0" />
        <mxCell id="1" parent="0" />
        <mxCell id="9k3ozad7-vAkzGbdjPDx-14" style="edgeStyle=orthogonalEdgeStyle;rounded=0;orthogonalLoop=1;jettySize=auto;html=1;endArrow=ERoneToMany;endFill=0;" edge="1" parent="1" source="9k3ozad7-vAkzGbdjPDx-15" target="9k3ozad7-vAkzGbdjPDx-4">
          <mxGeometry relative="1" as="geometry">
            <Array as="points">
              <mxPoint x="120" y="450" />
            </Array>
          </mxGeometry>
        </mxCell>
        <mxCell id="9k3ozad7-vAkzGbdjPDx-58" style="edgeStyle=orthogonalEdgeStyle;rounded=0;orthogonalLoop=1;jettySize=auto;html=1;entryX=0.5;entryY=0;entryDx=0;entryDy=0;endArrow=none;endFill=0;startArrow=ERmandOne;startFill=0;" edge="1" parent="1" source="9k3ozad7-vAkzGbdjPDx-1" target="9k3ozad7-vAkzGbdjPDx-54">
          <mxGeometry relative="1" as="geometry" />
        </mxCell>
        <mxCell id="9k3ozad7-vAkzGbdjPDx-1" value="Kepala dinas" style="rounded=0;whiteSpace=wrap;html=1;" vertex="1" parent="1">
          <mxGeometry x="50" y="250" width="120" height="60" as="geometry" />
        </mxCell>
        <mxCell id="9k3ozad7-vAkzGbdjPDx-21" style="edgeStyle=orthogonalEdgeStyle;rounded=0;orthogonalLoop=1;jettySize=auto;html=1;startArrow=ERmandOne;startFill=0;endArrow=none;endFill=0;" edge="1" parent="1" source="9k3ozad7-vAkzGbdjPDx-2" target="9k3ozad7-vAkzGbdjPDx-20">
          <mxGeometry relative="1" as="geometry" />
        </mxCell>
        <mxCell id="9k3ozad7-vAkzGbdjPDx-2" value="Kepala Bidang" style="rounded=0;whiteSpace=wrap;html=1;" vertex="1" parent="1">
          <mxGeometry x="625" y="870" width="120" height="60" as="geometry" />
        </mxCell>
        <mxCell id="9k3ozad7-vAkzGbdjPDx-52" style="edgeStyle=orthogonalEdgeStyle;rounded=0;orthogonalLoop=1;jettySize=auto;html=1;startArrow=ERmandOne;startFill=0;endArrow=none;endFill=0;" edge="1" parent="1" source="9k3ozad7-vAkzGbdjPDx-3" target="9k3ozad7-vAkzGbdjPDx-51">
          <mxGeometry relative="1" as="geometry" />
        </mxCell>
        <mxCell id="9k3ozad7-vAkzGbdjPDx-3" value="Koordinator Badan Penyuluh" style="rounded=0;whiteSpace=wrap;html=1;" vertex="1" parent="1">
          <mxGeometry x="-620" y="540" width="120" height="60" as="geometry" />
        </mxCell>
        <mxCell id="9k3ozad7-vAkzGbdjPDx-9" value="" style="edgeStyle=orthogonalEdgeStyle;rounded=0;orthogonalLoop=1;jettySize=auto;html=1;startArrow=none;startFill=0;endArrow=ERoneToMany;endFill=0;labelBorderColor=default;fontFamily=Times New Roman;labelBackgroundColor=default;" edge="1" parent="1" source="9k3ozad7-vAkzGbdjPDx-7" target="9k3ozad7-vAkzGbdjPDx-5">
          <mxGeometry relative="1" as="geometry" />
        </mxCell>
        <mxCell id="9k3ozad7-vAkzGbdjPDx-4" value="Proposal Pengadaan Bantuan Tani" style="rounded=0;whiteSpace=wrap;html=1;" vertex="1" parent="1">
          <mxGeometry x="50" y="650" width="120" height="60" as="geometry" />
        </mxCell>
        <mxCell id="9k3ozad7-vAkzGbdjPDx-5" value="Hasil Pengadaan Bantuan Tani" style="rounded=0;whiteSpace=wrap;html=1;" vertex="1" parent="1">
          <mxGeometry x="50" y="940" width="120" height="60" as="geometry" />
        </mxCell>
        <mxCell id="9k3ozad7-vAkzGbdjPDx-11" value="" style="edgeStyle=orthogonalEdgeStyle;rounded=0;orthogonalLoop=1;jettySize=auto;html=1;startArrow=ERmandOne;startFill=0;endArrow=none;endFill=0;labelBorderColor=default;fontFamily=Times New Roman;labelBackgroundColor=default;" edge="1" parent="1" source="9k3ozad7-vAkzGbdjPDx-4" target="9k3ozad7-vAkzGbdjPDx-7">
          <mxGeometry relative="1" as="geometry">
            <mxPoint x="380" y="480" as="sourcePoint" />
            <mxPoint x="380" y="660" as="targetPoint" />
          </mxGeometry>
        </mxCell>
        <mxCell id="9k3ozad7-vAkzGbdjPDx-7" value="Memiliki" style="rhombus;whiteSpace=wrap;html=1;verticalAlign=middle;" vertex="1" parent="1">
          <mxGeometry x="70" y="760" width="80" height="80" as="geometry" />
        </mxCell>
        <mxCell id="9k3ozad7-vAkzGbdjPDx-16" value="" style="edgeStyle=orthogonalEdgeStyle;rounded=0;orthogonalLoop=1;jettySize=auto;html=1;startArrow=ERmandOne;startFill=0;endArrow=none;endFill=0;" edge="1" parent="1" source="9k3ozad7-vAkzGbdjPDx-1" target="9k3ozad7-vAkzGbdjPDx-15">
          <mxGeometry relative="1" as="geometry">
            <mxPoint x="120" y="330" as="sourcePoint" />
            <mxPoint x="320" y="450" as="targetPoint" />
            <Array as="points" />
          </mxGeometry>
        </mxCell>
        <mxCell id="9k3ozad7-vAkzGbdjPDx-15" value="Menyetujui Pelaksanaan Pengadaan &lt;br&gt;Bantuan Tani" style="rhombus;whiteSpace=wrap;html=1;verticalAlign=middle;" vertex="1" parent="1">
          <mxGeometry x="45" y="385" width="130" height="130" as="geometry" />
        </mxCell>
        <mxCell id="9k3ozad7-vAkzGbdjPDx-17" value="Bidang" style="rounded=0;whiteSpace=wrap;html=1;" vertex="1" parent="1">
          <mxGeometry x="625" y="85" width="120" height="60" as="geometry" />
        </mxCell>
        <mxCell id="9k3ozad7-vAkzGbdjPDx-22" style="edgeStyle=orthogonalEdgeStyle;rounded=0;orthogonalLoop=1;jettySize=auto;html=1;endArrow=ERoneToMany;endFill=0;" edge="1" parent="1" source="9k3ozad7-vAkzGbdjPDx-20" target="9k3ozad7-vAkzGbdjPDx-17">
          <mxGeometry relative="1" as="geometry" />
        </mxCell>
        <mxCell id="9k3ozad7-vAkzGbdjPDx-20" value="Menanggung Jawabi" style="rhombus;whiteSpace=wrap;html=1;verticalAlign=middle;" vertex="1" parent="1">
          <mxGeometry x="620" y="255" width="130" height="130" as="geometry" />
        </mxCell>
        <mxCell id="9k3ozad7-vAkzGbdjPDx-23" style="edgeStyle=orthogonalEdgeStyle;rounded=0;orthogonalLoop=1;jettySize=auto;html=1;startArrow=ERmandOne;startFill=0;endArrow=none;endFill=0;" edge="1" parent="1" target="9k3ozad7-vAkzGbdjPDx-26" source="9k3ozad7-vAkzGbdjPDx-3">
          <mxGeometry relative="1" as="geometry">
            <mxPoint x="-445" y="220" as="sourcePoint" />
            <Array as="points">
              <mxPoint x="-560" y="425" />
            </Array>
          </mxGeometry>
        </mxCell>
        <mxCell id="9k3ozad7-vAkzGbdjPDx-24" value="Kecamatan" style="rounded=0;whiteSpace=wrap;html=1;" vertex="1" parent="1">
          <mxGeometry x="-485" y="85" width="120" height="60" as="geometry" />
        </mxCell>
        <mxCell id="9k3ozad7-vAkzGbdjPDx-25" style="edgeStyle=orthogonalEdgeStyle;rounded=0;orthogonalLoop=1;jettySize=auto;html=1;endArrow=ERoneToMany;endFill=0;" edge="1" parent="1" source="9k3ozad7-vAkzGbdjPDx-26" target="9k3ozad7-vAkzGbdjPDx-24">
          <mxGeometry relative="1" as="geometry">
            <Array as="points">
              <mxPoint x="-560" y="115" />
            </Array>
          </mxGeometry>
        </mxCell>
        <mxCell id="9k3ozad7-vAkzGbdjPDx-26" value="Menanggung Jawabi" style="rhombus;whiteSpace=wrap;html=1;verticalAlign=middle;" vertex="1" parent="1">
          <mxGeometry x="-625" y="235" width="130" height="130" as="geometry" />
        </mxCell>
        <mxCell id="9k3ozad7-vAkzGbdjPDx-30" style="edgeStyle=orthogonalEdgeStyle;rounded=0;orthogonalLoop=1;jettySize=auto;html=1;startArrow=ERmandOne;startFill=0;endArrow=none;endFill=0;" edge="1" parent="1" target="9k3ozad7-vAkzGbdjPDx-32" source="9k3ozad7-vAkzGbdjPDx-1">
          <mxGeometry relative="1" as="geometry">
            <mxPoint x="290" y="360" as="sourcePoint" />
            <mxPoint x="230" y="210" as="targetPoint" />
            <Array as="points">
              <mxPoint x="110" y="115" />
            </Array>
          </mxGeometry>
        </mxCell>
        <mxCell id="9k3ozad7-vAkzGbdjPDx-31" style="edgeStyle=orthogonalEdgeStyle;rounded=0;orthogonalLoop=1;jettySize=auto;html=1;endArrow=ERoneToMany;endFill=0;" edge="1" parent="1" source="9k3ozad7-vAkzGbdjPDx-32" target="9k3ozad7-vAkzGbdjPDx-17">
          <mxGeometry relative="1" as="geometry">
            <mxPoint x="505" y="570" as="targetPoint" />
          </mxGeometry>
        </mxCell>
        <mxCell id="9k3ozad7-vAkzGbdjPDx-32" value="Menanggung Jawabi" style="rhombus;whiteSpace=wrap;html=1;verticalAlign=middle;" vertex="1" parent="1">
          <mxGeometry x="290" y="50" width="130" height="130" as="geometry" />
        </mxCell>
        <mxCell id="9k3ozad7-vAkzGbdjPDx-33" style="edgeStyle=orthogonalEdgeStyle;rounded=0;orthogonalLoop=1;jettySize=auto;html=1;startArrow=ERmandOne;startFill=0;endArrow=none;endFill=0;" edge="1" parent="1" target="9k3ozad7-vAkzGbdjPDx-35" source="9k3ozad7-vAkzGbdjPDx-1">
          <mxGeometry relative="1" as="geometry">
            <mxPoint x="-267.5" y="50" as="sourcePoint" />
            <Array as="points">
              <mxPoint x="110" y="115" />
            </Array>
          </mxGeometry>
        </mxCell>
        <mxCell id="9k3ozad7-vAkzGbdjPDx-34" style="edgeStyle=orthogonalEdgeStyle;rounded=0;orthogonalLoop=1;jettySize=auto;html=1;endArrow=ERoneToMany;endFill=0;" edge="1" parent="1" source="9k3ozad7-vAkzGbdjPDx-35" target="9k3ozad7-vAkzGbdjPDx-24">
          <mxGeometry relative="1" as="geometry">
            <mxPoint x="-52.5" y="260" as="targetPoint" />
          </mxGeometry>
        </mxCell>
        <mxCell id="9k3ozad7-vAkzGbdjPDx-35" value="Menanggung Jawabi" style="rhombus;whiteSpace=wrap;html=1;verticalAlign=middle;" vertex="1" parent="1">
          <mxGeometry x="-160" y="50" width="130" height="130" as="geometry" />
        </mxCell>
        <mxCell id="9k3ozad7-vAkzGbdjPDx-36" style="edgeStyle=orthogonalEdgeStyle;rounded=0;orthogonalLoop=1;jettySize=auto;html=1;startArrow=ERmandOne;startFill=0;endArrow=none;endFill=0;" edge="1" parent="1" target="9k3ozad7-vAkzGbdjPDx-38" source="9k3ozad7-vAkzGbdjPDx-3">
          <mxGeometry relative="1" as="geometry">
            <mxPoint x="-470" y="887.5" as="sourcePoint" />
            <Array as="points">
              <mxPoint x="-560" y="678" />
            </Array>
          </mxGeometry>
        </mxCell>
        <mxCell id="9k3ozad7-vAkzGbdjPDx-37" style="edgeStyle=orthogonalEdgeStyle;rounded=0;orthogonalLoop=1;jettySize=auto;html=1;endArrow=ERoneToMany;endFill=0;" edge="1" parent="1" source="9k3ozad7-vAkzGbdjPDx-38" target="9k3ozad7-vAkzGbdjPDx-4">
          <mxGeometry relative="1" as="geometry">
            <mxPoint x="-130" y="772.5" as="targetPoint" />
          </mxGeometry>
        </mxCell>
        <mxCell id="9k3ozad7-vAkzGbdjPDx-38" value="Membuat" style="rhombus;whiteSpace=wrap;html=1;verticalAlign=middle;" vertex="1" parent="1">
          <mxGeometry x="-310" y="615" width="130" height="130" as="geometry" />
        </mxCell>
        <mxCell id="9k3ozad7-vAkzGbdjPDx-40" value="Kelompok Tani" style="rounded=0;whiteSpace=wrap;html=1;" vertex="1" parent="1">
          <mxGeometry x="-320" y="250" width="120" height="60" as="geometry" />
        </mxCell>
        <mxCell id="9k3ozad7-vAkzGbdjPDx-53" style="edgeStyle=orthogonalEdgeStyle;rounded=0;orthogonalLoop=1;jettySize=auto;html=1;endArrow=ERoneToMany;endFill=0;" edge="1" parent="1" source="9k3ozad7-vAkzGbdjPDx-51" target="9k3ozad7-vAkzGbdjPDx-40">
          <mxGeometry relative="1" as="geometry">
            <Array as="points">
              <mxPoint x="-430" y="310" />
            </Array>
          </mxGeometry>
        </mxCell>
        <mxCell id="9k3ozad7-vAkzGbdjPDx-51" value="Memanajemen" style="rhombus;whiteSpace=wrap;html=1;verticalAlign=middle;" vertex="1" parent="1">
          <mxGeometry x="-495" y="400" width="130" height="130" as="geometry" />
        </mxCell>
        <mxCell id="9k3ozad7-vAkzGbdjPDx-56" style="edgeStyle=orthogonalEdgeStyle;rounded=0;orthogonalLoop=1;jettySize=auto;html=1;endArrow=ERoneToMany;endFill=0;" edge="1" parent="1" source="9k3ozad7-vAkzGbdjPDx-54" target="9k3ozad7-vAkzGbdjPDx-40">
          <mxGeometry relative="1" as="geometry" />
        </mxCell>
        <mxCell id="9k3ozad7-vAkzGbdjPDx-54" value="Memanajemen" style="rhombus;whiteSpace=wrap;html=1;verticalAlign=middle;" vertex="1" parent="1">
          <mxGeometry x="-190" y="385" width="130" height="130" as="geometry" />
        </mxCell>
        <mxCell id="9k3ozad7-vAkzGbdjPDx-61" value="" style="edgeStyle=orthogonalEdgeStyle;rounded=0;orthogonalLoop=1;jettySize=auto;html=1;endArrow=none;endFill=0;startArrow=ERmandOne;startFill=0;" edge="1" parent="1" source="9k3ozad7-vAkzGbdjPDx-2" target="9k3ozad7-vAkzGbdjPDx-60">
          <mxGeometry relative="1" as="geometry">
            <mxPoint x="625" y="680" as="sourcePoint" />
            <mxPoint x="170" y="680" as="targetPoint" />
            <Array as="points" />
          </mxGeometry>
        </mxCell>
        <mxCell id="9k3ozad7-vAkzGbdjPDx-71" style="edgeStyle=orthogonalEdgeStyle;rounded=0;orthogonalLoop=1;jettySize=auto;html=1;entryX=1;entryY=0.5;entryDx=0;entryDy=0;endArrow=ERoneToMany;endFill=0;" edge="1" parent="1" source="9k3ozad7-vAkzGbdjPDx-60" target="9k3ozad7-vAkzGbdjPDx-4">
          <mxGeometry relative="1" as="geometry" />
        </mxCell>
        <mxCell id="9k3ozad7-vAkzGbdjPDx-60" value="Membuat" style="rhombus;whiteSpace=wrap;html=1;verticalAlign=middle;" vertex="1" parent="1">
          <mxGeometry x="320" y="835" width="130" height="130" as="geometry" />
        </mxCell>
        <mxCell id="9k3ozad7-vAkzGbdjPDx-62" style="edgeStyle=orthogonalEdgeStyle;rounded=0;orthogonalLoop=1;jettySize=auto;html=1;endArrow=none;endFill=0;startArrow=ERmandOne;startFill=0;" edge="1" parent="1" target="9k3ozad7-vAkzGbdjPDx-68" source="9k3ozad7-vAkzGbdjPDx-2">
          <mxGeometry relative="1" as="geometry">
            <mxPoint x="720" y="319.79" as="sourcePoint" />
          </mxGeometry>
        </mxCell>
        <mxCell id="9k3ozad7-vAkzGbdjPDx-63" style="edgeStyle=orthogonalEdgeStyle;rounded=0;orthogonalLoop=1;jettySize=auto;html=1;startArrow=ERmandOne;startFill=0;endArrow=none;endFill=0;" edge="1" parent="1" target="9k3ozad7-vAkzGbdjPDx-66" source="9k3ozad7-vAkzGbdjPDx-1">
          <mxGeometry relative="1" as="geometry">
            <mxPoint x="170" y="609.79" as="sourcePoint" />
            <mxPoint x="390" y="370" as="targetPoint" />
            <Array as="points">
              <mxPoint x="240" y="280" />
            </Array>
          </mxGeometry>
        </mxCell>
        <mxCell id="9k3ozad7-vAkzGbdjPDx-64" value="Program Pengadaan" style="rounded=0;whiteSpace=wrap;html=1;" vertex="1" parent="1">
          <mxGeometry x="490" y="250" width="120" height="60" as="geometry" />
        </mxCell>
        <mxCell id="9k3ozad7-vAkzGbdjPDx-66" value="Memanajemen" style="rhombus;whiteSpace=wrap;html=1;verticalAlign=middle;" vertex="1" parent="1">
          <mxGeometry x="270" y="215.00000000000003" width="130" height="130" as="geometry" />
        </mxCell>
        <mxCell id="9k3ozad7-vAkzGbdjPDx-67" style="edgeStyle=orthogonalEdgeStyle;rounded=0;orthogonalLoop=1;jettySize=auto;html=1;endArrow=ERoneToMany;endFill=0;" edge="1" parent="1" source="9k3ozad7-vAkzGbdjPDx-68" target="9k3ozad7-vAkzGbdjPDx-64">
          <mxGeometry relative="1" as="geometry" />
        </mxCell>
        <mxCell id="9k3ozad7-vAkzGbdjPDx-68" value="Memanajemen" style="rhombus;whiteSpace=wrap;html=1;verticalAlign=middle;" vertex="1" parent="1">
          <mxGeometry x="485" y="470" width="130" height="130" as="geometry" />
        </mxCell>
        <mxCell id="9k3ozad7-vAkzGbdjPDx-69" style="edgeStyle=orthogonalEdgeStyle;rounded=0;orthogonalLoop=1;jettySize=auto;html=1;endArrow=ERoneToMany;endFill=0;" edge="1" parent="1" source="9k3ozad7-vAkzGbdjPDx-66" target="9k3ozad7-vAkzGbdjPDx-64">
          <mxGeometry relative="1" as="geometry">
            <mxPoint x="695" y="265" as="sourcePoint" />
            <mxPoint x="550" y="270" as="targetPoint" />
          </mxGeometry>
        </mxCell>
        <mxCell id="9k3ozad7-vAkzGbdjPDx-70" value="Program Pengadaan" style="rounded=0;whiteSpace=wrap;html=1;" vertex="1" parent="1">
          <mxGeometry x="230" y="505" width="120" height="60" as="geometry" />
        </mxCell>
      </root>
    </mxGraphModel>
  </diagram>
</mxfile>
